<?xml version="1.0" encoding="UTF-8" standalone="no" ?>
<!DOCTYPE svg PUBLIC "-//W3C//DTD SVG 1.1//EN" "http://www.w3.org/Graphics/SVG/1.1/DTD/svg11.dtd">
<svg xmlns="http://www.w3.org/2000/svg" xmlns:xlink="http://www.w3.org/1999/xlink" version="1.1" width="1080" height="1080" viewBox="0 0 1080 1080" xml:space="preserve">
<desc>Created with Fabric.js 5.2.4</desc>
<defs>
</defs>
<rect x="0" y="0" width="100%" height="100%" fill="transparent"></rect>
<g transform="matrix(1 0 0 1 540 540)" id="b53fb4c9-8111-4fcc-a919-4f6c06dc9ebc"  >
<rect style="stroke: none; stroke-width: 1; stroke-dasharray: none; stroke-linecap: butt; stroke-dashoffset: 0; stroke-linejoin: miter; stroke-miterlimit: 4; fill: rgb(255,255,255); fill-rule: nonzero; opacity: 1; visibility: hidden;" vector-effect="non-scaling-stroke"  x="-540" y="-540" rx="0" ry="0" width="1080" height="1080" />
</g>
<g transform="matrix(1 0 0 1 540 540)" id="f5f0973a-e361-46be-81fd-3fe8c459c1be"  >
</g>
<g transform="matrix(1 0 0 1 540 540)"  >
<g style="" vector-effect="non-scaling-stroke"   >
		<g transform="matrix(1 0 0 1 0 4)"  >
<path style="stroke: rgb(0,0,0); stroke-width: 1.5; stroke-dasharray: none; stroke-linecap: round; stroke-dashoffset: 0; stroke-linejoin: round; stroke-miterlimit: 4; fill: none; fill-rule: nonzero; opacity: 1;" vector-effect="non-scaling-stroke"  transform=" translate(-12, -16)" d="M 5 20 L 5 19 C 5 15.134 8.13401 12 12 12 L 12 12 C 15.866 12 19 15.134 19 19 L 19 20" stroke-linecap="round" />
</g>
		<g transform="matrix(1 0 0 1 0 -4)"  >
<path style="stroke: rgb(0,0,0); stroke-width: 1.5; stroke-dasharray: none; stroke-linecap: round; stroke-dashoffset: 0; stroke-linejoin: round; stroke-miterlimit: 4; fill: none; fill-rule: nonzero; opacity: 1;" vector-effect="non-scaling-stroke"  transform=" translate(-12, -8)" d="M 12 12 C 14.2091 12 16 10.2091 16 8 C 16 5.79086 14.2091 4 12 4 C 9.79086 4 8 5.79086 8 8 C 8 10.2091 9.79086 12 12 12 Z" stroke-linecap="round" />
</g>
</g>
</g>
<g transform="matrix(1.38 0 0 1.38 540 540)"  >
<g style="" vector-effect="non-scaling-stroke"   >
		<g transform="matrix(1 0 0 1 0 0)"  >
<path style="stroke: rgb(0,0,0); stroke-width: 1.5; stroke-dasharray: none; stroke-linecap: round; stroke-dashoffset: 0; stroke-linejoin: round; stroke-miterlimit: 4; fill: none; fill-rule: nonzero; opacity: 1;" vector-effect="non-scaling-stroke"  transform=" translate(-12, -12)" d="M 4 21.4 L 4 2.6 C 4 2.26863 4.26863 2 4.6 2 L 16.2515 2 C 16.4106 2 16.5632 2.06321 16.6757 2.17574 L 19.8243 5.32426 C 19.9368 5.43679 20 5.5894 20 5.74853 L 20 21.4 C 20 21.7314 19.7314 22 19.4 22 L 4.6 22 C 4.26863 22 4 21.7314 4 21.4 Z" stroke-linecap="round" />
</g>
		<g transform="matrix(1 0 0 1 6 -8)"  >
<path style="stroke: rgb(0,0,0); stroke-width: 1.5; stroke-dasharray: none; stroke-linecap: round; stroke-dashoffset: 0; stroke-linejoin: round; stroke-miterlimit: 4; fill: none; fill-rule: nonzero; opacity: 1;" vector-effect="non-scaling-stroke"  transform=" translate(-18, -4)" d="M 16 2 L 16 5.4 C 16 5.73137 16.2686 6 16.6 6 L 20 6" stroke-linecap="round" />
</g>
</g>
</g>
</svg>